<?xml version="1.0" standalone="no"?>
<!DOCTYPE svg PUBLIC "-//W3C//DTD SVG 20010904//EN"
 "http://www.w3.org/TR/2001/REC-SVG-20010904/DTD/svg10.dtd">
<svg version="1.0" xmlns="http://www.w3.org/2000/svg"
 width="48.000000pt" height="48.000000pt" viewBox="0 0 48.000000 48.000000"
 preserveAspectRatio="xMidYMid meet">

<g transform="translate(0.000000,48.000000) scale(0.100000,-0.100000)"
fill="#a6e22e" stroke="none">
<path d="M365 439 c-55 -21 -104 -40 -110 -42 -6 -2 -5 -22 2 -52 12 -53 4
-92 -22 -101 -25 -10 -27 1 -8 34 27 47 8 60 -56 36 -28 -10 -51 -21 -51 -26
0 -4 8 -26 17 -49 l16 -42 -29 -24 c-16 -12 -32 -23 -36 -23 -19 0 -4 -21 47
-65 l56 -47 65 18 c71 19 89 38 79 83 -6 27 -9 29 -57 27 -33 -1 -52 3 -55 12
-3 8 7 12 34 12 21 0 53 9 72 21 l35 21 -33 14 c-41 17 -32 35 14 27 29 -5 39
-1 65 25 41 41 39 53 -6 40 -37 -10 -64 -6 -64 10 0 5 18 12 39 16 50 8 89 41
97 84 4 17 3 31 -2 31 -5 -1 -54 -19 -109 -40z"/>
<path d="M143 417 c-67 -22 -79 -42 -50 -80 11 -16 16 -16 69 5 46 18 58 28
58 45 0 12 5 25 10 28 13 8 3 25 -13 24 -7 0 -40 -10 -74 -22z"/>
<path d="M20 100 c-11 -11 -20 -29 -20 -40 0 -21 33 -60 51 -60 22 0 99 23 99
29 0 7 -73 70 -97 84 -7 5 -21 -1 -33 -13z"/>
</g>
</svg>
